<svg xmlns="http://www.w3.org/2000/svg" width="24" height="24" viewBox="0 0 172 172"><g fill="none" stroke-miterlimit="10" font-family="none" font-weight="none" font-size="none" text-anchor="none" style="mix-blend-mode:normal"><path d="M0 172V0h172v172z"/><path d="M95.042 106.548l17.777 17.777c-2.715 5.179-2.995 10.33-.14 13.185l32.446 32.446c4.087 4.088 12.99 1.848 19.82-5.01 6.859-6.86 9.099-15.734 5.011-19.821l-32.418-32.446c-2.883-2.855-8.034-2.575-13.213.112l-17.777-17.749zM60.917 0C27.267 0 0 27.267 0 60.917c0 33.65 27.267 60.916 60.917 60.916 33.65 0 60.916-27.267 60.916-60.916C121.833 27.267 94.566 0 60.917 0zm0 107.5c-25.728 0-46.584-20.856-46.584-46.583 0-25.728 20.856-46.584 46.584-46.584 25.727 0 46.583 20.856 46.583 46.584 0 25.727-20.856 46.583-46.583 46.583z" fill="#000"/></g></svg>